<?xml version="1.0" encoding="UTF-8" standalone="no"?>
<!-- Created with Inkscape (http://www.inkscape.org/) -->

<svg
   width="512"
   height="512"
   viewBox="59.4750 -5.1250 71.7300 71.7300"
   version="1.1"
   id="svg14136"
   inkscape:version="1.2.2 (b0a8486541, 2022-12-01)"
   sodipodi:docname="favicon.svg"
   xmlns:inkscape="http://www.inkscape.org/namespaces/inkscape"
   xmlns:sodipodi="http://sodipodi.sourceforge.net/DTD/sodipodi-0.dtd"
   xmlns="http://www.w3.org/2000/svg"
   xmlns:svg="http://www.w3.org/2000/svg">
  <sodipodi:namedview
     id="namedview14138"
     pagecolor="#ffffff"
     bordercolor="#000000"
     borderopacity="0.25"
     inkscape:showpageshadow="2"
     inkscape:pageopacity="0.0"
     inkscape:pagecheckerboard="0"
     inkscape:deskcolor="#d1d1d1"
     inkscape:document-units="mm"
     showgrid="false"
     inkscape:zoom="0.7500982"
     inkscape:cx="347.28786"
     inkscape:cy="456.60688"
     inkscape:window-width="1920"
     inkscape:window-height="1011"
     inkscape:window-x="0"
     inkscape:window-y="32"
     inkscape:window-maximized="1"
     inkscape:current-layer="g13387" />
  <defs
     id="defs14133" />
  <g
     inkscape:label="Layer 1"
     inkscape:groupmode="layer"
     id="layer1">
    <path
       style="fill:#060606;fill-opacity:1;stroke-width:0.264583"
       id="path9"
       fill="#1a1b1a"
       d="m 64.379833,-337.213 c -0.4789,0.47889 -21.43917,0.40481 -23.69342,-0.0847 -3.20939,-0.69586 -5.9346,-2.74638 -7.17814,-5.39486 l -0.69321,-1.47902 v -19.59239 l 0.67204,-1.31763 c 0.71967,-1.40758 2.40242,-2.75431 4.17513,-3.34433 1.38377,-0.45773 25.59576,-0.64558 26.13022,-0.20108 0.4101,0.33866 0.5424,4.33652 0.16669,4.92918 -0.15081,0.23548 -3.10356,0.33867 -11.61786,0.39688 l -11.41409,0.0794 -0.68263,0.6403 c -0.64823,0.61118 -0.68262,0.78052 -0.68262,3.37343 v 2.73315 h 23.0002 l 0.30691,0.57679 c 0.36778,0.68263 0.11378,4.62756 -0.33072,5.16467 -0.22755,0.27252 -2.62467,0.34396 -11.63106,0.34396 h -11.34533 v 2.92893 c 0,1.60867 0.12964,3.16707 0.28575,3.46075 0.65087,1.21444 1.35995,1.28323 13.30322,1.28323 9.99067,0 11.24214,0.045 11.38502,0.41804 0.29898,0.77523 0.17462,4.75457 -0.1561,5.0853 z m -105.047498,-6.49553 -0.07144,6.68073 -3.055938,0.0741 c -1.68275,0.0397 -3.140604,-0.008 -3.241145,-0.11113 -0.103188,-0.10054 -0.185209,-4.43706 -0.185209,-9.63612 0,-8.37407 0.04763,-9.47209 0.418042,-9.61232 0.230187,-0.09 5.540375,-0.16139 11.800416,-0.16139 h 11.382375 l 0.899584,-0.89958 c 0.74877,-0.74878 0.899583,-1.09273 0.899583,-2.05053 -0.0026,-0.68791 -0.216958,-1.50283 -0.537104,-2.0267 -0.981604,-1.61396 -1.182688,-1.63777 -13.435542,-1.63777 -0.936625,0 -1.799166,0 -2.595562,0.003 -6.752167,0.0106 -8.66775,0.0132 -9.191625,-0.83873 -0.206375,-0.33866 -0.195792,-0.81227 -0.179917,-1.47108 0.0053,-0.19579 0.01058,-0.41011 0.01058,-0.64029 0,-0.254 -0.0079,-0.48419 -0.01323,-0.69586 -0.02117,-0.62706 -0.0344,-1.07685 0.161396,-1.39964 0.505354,-0.83344 2.410354,-0.81227 9.223375,-0.74613 0.891646,0.008 1.870604,0.0185 2.942167,0.0265 11.120437,0.0926 11.707812,0.12171 13.361458,0.67469 3.513667,1.1721 5.640917,3.19087 6.577542,6.24152 1.021291,3.32846 0.46302,6.88181 -1.426105,9.08844 -1.045104,1.22237 -3.532187,2.43945 -5.109104,2.50031 l -1.071562,0.0423 0.841375,1.09273 c 0.460375,0.60325 1.3335,1.6854 1.942041,2.40506 5.352521,6.37117 7.765521,9.42182 7.627938,9.64671 -0.0979,0.15611 -1.740958,0.26194 -4.050771,0.26194 l -3.886729,-0.005 -1.328208,-1.64836 c -0.732896,-0.90752 -3.053292,-3.94229 -5.159375,-6.74158 l -3.831167,-5.09058 -4.823354,-0.003 -4.826,-0.003 z m 115.453558,5.91344 -0.20373,0.76729 -2.8284,0.0741 -2.82839,0.0767 -0.26194,-0.68792 c -0.40481,-1.06363 -0.3519,-30.62023 0.0556,-31.02769 0.21431,-0.21431 1.45786,-0.3175 3.86292,-0.3175 h 3.54542 l 0.80697,0.8599 c 0.86519,0.92339 3.61421,4.16189 10.48809,12.35869 2.38654,2.84427 4.76252,5.67531 5.28111,6.29443 0.52125,0.61913 1.03984,1.12448 1.15361,1.12448 0.11641,0 0.20902,-4.572 0.20902,-10.15735 0,-9.01965 0.0476,-10.17588 0.41804,-10.31875 0.61383,-0.23548 4.95035,-0.18786 5.33929,0.0582 0.261937,0.16668 0.317497,3.53218 0.264577,15.93585 l -0.0688,15.72683 -4.513787,0.15082 -1.19592,-1.397 c -0.65881,-0.76994 -2.14579,-2.51884 -3.30202,-3.88938 -2.15374,-2.55058 -2.91838,-3.4581 -9.77374,-11.55171 -2.18281,-2.57704 -4.38679,-5.19906 -4.89479,-5.82612 -0.508,-0.62706 -1.00277,-1.14829 -1.09537,-1.15359 -0.40217,-0.0317 -0.45509,1.74361 -0.35719,11.6549 0.0582,5.76263 0.0132,10.82146 -0.10054,11.24479 z m -138.951203,0.38894 c -0.261938,0.48948 -0.619125,0.508 -8.665104,0.47625 -4.614333,-0.0185 -9.11225,-0.127 -9.998604,-0.24342 -3.712104,-0.48418 -8.212666,-2.95804 -9.935104,-5.45835 -1.624541,-2.36273 -1.894416,-3.63273 -2.024062,-9.49325 -0.07408,-3.38402 -0.0079,-5.82613 0.182562,-6.74688 1.084792,-5.21758 4.992688,-8.53545 11.369146,-9.652 1.629833,-0.2831 4.41325,-0.38629 10.509249,-0.38629 7.924271,0 8.302625,0.0238 8.561917,0.51065 0.388937,0.72231 0.346604,4.05606 -0.05556,4.58787 -0.293687,0.38629 -1.3335,0.4445 -9.326562,0.51329 -8.73125,0.0741 -9.03552,0.0952 -10.308166,0.68263 -1.539875,0.70908 -2.069042,1.143 -3.092979,2.54265 l -0.754063,1.03187 v 5.67531 c 0,6.47171 0.07938,6.79979 2.039938,8.52488 2.098145,1.84944 2.754312,1.95262 12.588874,1.97379 7.408333,0.0159 8.710083,0.0767 8.924396,0.4154 0.338667,0.5371 0.328083,4.40531 -0.01588,5.0456 z m 11.093979,0.15081 c -0.396875,0.47625 -5.797021,0.51329 -6.267979,0.0423 -0.240771,-0.24078 -0.3175,-4.1275 -0.3175,-15.86971 v -15.55221 l 0.595312,-0.14817 c 0.328084,-0.082 1.846792,-0.11377 3.373438,-0.0714 l 2.778125,0.0767 0.06879,15.58132 c 0.05027,11.28712 -0.01587,15.6792 -0.230187,15.94114 z m 135.858224,17.04975 c -1.20121,0.58473 -1.651,0.635 -6.71248,0.72761 -2.9845,0.0529 -5.51392,0.008 -5.6224,-0.10584 -0.10848,-0.11112 -0.19843,-3.15912 -0.19843,-6.77333 v -6.5696 h 5.56683 c 5.03237,0 5.66473,0.0503 6.59606,0.52652 1.38642,0.70643 1.86002,1.45785 1.86002,2.95275 0,0.96043 -0.16139,1.43404 -0.70644,2.08227 l -0.70643,0.83873 0.83343,0.65087 c 0.46832,0.36777 0.96309,1.08744 1.13242,1.65365 0.25665,0.85725 0.22225,1.18268 -0.22489,2.19604 -0.42334,0.95514 -0.78582,1.31762 -1.81769,1.82033 z m -27.49286,-0.21431 c -0.635,0.93662 -0.74348,0.9869 -2.11666,0.9869 -0.79375,0 -1.4446,-0.10055 -1.4446,-0.2249 0,-0.12171 1.50016,-3.16442 3.33108,-6.75746 l 3.33375,-6.53521 1.75948,0.0794 1.76212,0.0767 3.34169,6.48229 c 1.83621,3.56658 3.28877,6.57225 3.22527,6.68073 -0.0635,0.10848 -0.74613,0.19844 -1.51342,0.19844 -1.51341,0 -1.86002,-0.23548 -2.64848,-1.78594 l -0.43391,-0.8599 h -3.96346 c -3.02154,0 -3.96081,0.0794 -3.96081,0.33602 0,0.18521 -0.30163,0.78052 -0.67205,1.32292 z m 42.32281,0.70644 c -1.15359,0.33337 -5.24143,0.59266 -6.06428,0.38629 -0.29104,-0.0741 -1.14829,-0.254 -1.90238,-0.39952 -0.75406,-0.14552 -1.67746,-0.50536 -2.04788,-0.7964 l -0.67468,-0.53181 0.53181,-1.03981 c 0.5715,-1.11654 0.77258,-1.20915 1.64571,-0.74348 1.58223,0.84931 5.54836,1.29116 6.91097,0.77258 1.2065,-0.45773 1.51341,-1.92617 0.4736,-2.24367 -0.24077,-0.0714 -1.66687,-0.3122 -3.16971,-0.53445 -4.07463,-0.60061 -5.84205,-1.56105 -6.36592,-3.4634 -0.4445,-1.60867 0.44185,-3.33375 2.2172,-4.31535 0.62442,-0.34396 1.52932,-0.43657 4.23339,-0.43657 2.98185,0 3.60627,0.0767 4.69635,0.57944 0.69057,0.32015 1.25677,0.65352 1.25677,0.73819 0,0.0873 -0.24077,0.62971 -0.53445,1.2065 l -0.53446,1.05039 -0.9869,-0.41539 c -1.35996,-0.56886 -5.0033,-0.80169 -6.23096,-0.39688 -0.74613,0.24607 -0.97367,0.46302 -0.97367,0.93134 0,0.33337 0.16933,0.74877 0.37836,0.92075 0.20902,0.17462 1.8362,0.55033 3.61952,0.83608 4.27567,0.68527 5.27579,1.13771 6.051017,2.74373 0.5424,1.11654 0.5715,1.35731 0.28046,2.32569 -0.4101,1.36525 -1.479017,2.4421 -2.809867,2.82575 z m -46.99532,-0.037 c -0.21961,0.2196 -1.42346,0.30691 -3.90261,0.2831 -4.9477,-0.0503 -6.0272,-0.22754 -6.79714,-1.12183 -0.61648,-0.71438 -0.62442,-0.81227 -0.62442,-6.53257 v -5.80495 h 3.175 v 10.58333 h 8.46667 v 1.13771 c 0,0.62706 -0.14288,1.28058 -0.3175,1.45521 z m 22.80706,-5.23875 v 2.9501 l 3.72533,-0.0847 c 3.32581,-0.0794 3.76767,-0.14287 4.10104,-0.6006 0.48948,-0.67204 0.47625,-1.3335 -0.0397,-1.84944 -0.33866,-0.33867 -1.10331,-0.41539 -4.10104,-0.41539 z m 7.18872,33.53329 c 0.0661,0.76993 -0.0159,1.00806 -0.3757,1.07685 -0.41805,0.0794 -0.46302,-0.1905 -0.46302,-2.70933 v -2.79665 h 2.19075 c 1.5531,0 2.36008,0.11906 2.77812,0.41275 0.8255,0.57679 0.78052,1.778 -0.09,2.46327 -0.71966,0.56621 -0.64294,1.12184 0.26194,1.87325 0.50006,0.41275 0.30427,0.80698 -0.39952,0.80698 -0.29104,0 -0.63236,-0.26458 -0.76994,-0.59531 -0.50006,-1.19592 -0.94985,-1.52136 -2.10344,-1.52136 h -1.11389 z m -102.488968,0 c -0.05821,0.6932 -0.22225,1.01599 -0.545041,1.07949 -0.418042,0.0767 -0.463021,-0.1905 -0.463021,-2.71197 v -2.79665 l 2.05052,0.003 c 2.50825,0.005 3.344334,0.36777 3.452813,1.49489 0.0635,0.62971 -0.08202,0.94986 -0.611188,1.3679 -0.732895,0.57679 -0.661458,1.12712 0.248709,1.88383 0.224896,0.18521 0.343958,0.4445 0.264583,0.5715 -0.312208,0.50535 -0.931333,0.18785 -1.600729,-0.82285 -0.613833,-0.92604 -0.8255,-1.05834 -1.706563,-1.05834 -0.973666,0 -1.010708,0.0344 -1.090083,0.98955 z m 95.477518,-36.09182 c 0.0952,0.0979 1.50812,0.17728 3.13795,0.17728 2.59821,0 3.05065,-0.0688 3.66184,-0.54769 0.73554,-0.57944 0.91016,-1.51342 0.37835,-2.04523 -0.21431,-0.21431 -1.45256,-0.3175 -3.83646,-0.3175 h -3.51895 v 1.27794 c 0,0.70379 0.0794,1.35995 0.17727,1.4552 z m -1.87325,36.55748 c -0.39423,0.60061 -1.37848,0.96838 -1.16946,0.43656 0.0476,-0.12435 0.62441,-1.37318 1.27794,-2.77547 1.143,-2.44475 1.22502,-2.54794 2.04258,-2.55059 0.81756,-0.005 0.90223,0.0979 2.05052,2.50825 0.65881,1.38113 1.19856,2.62996 1.19856,2.77813 0,0.51329 -0.78581,0.25664 -1.21444,-0.39688 -0.38629,-0.59002 -0.61647,-0.66146 -2.09285,-0.66146 -1.47637,0 -1.70656,0.0714 -2.09285,0.66146 z m -40.48123,0 c -0.41804,0.63765 -0.72231,0.80169 -0.98954,0.53446 -0.0714,-0.0714 0.45773,-1.32027 1.17211,-2.77812 1.25147,-2.55059 1.3335,-2.65113 2.16164,-2.65113 0.83344,0 0.90223,0.0873 2.02406,2.55058 0.6403,1.40494 1.20386,2.65378 1.25148,2.77813 0.2249,0.57414 -0.96308,0.15346 -1.23031,-0.43392 -0.27781,-0.61383 -0.43656,-0.66146 -2.12725,-0.66146 -1.65894,0 -1.86796,0.0609 -2.26219,0.66146 z m -100.4861,-1.25941 c -0.0635,1.44991 -0.166687,1.79916 -0.542396,1.8706 -0.418041,0.0794 -0.46302,-0.18521 -0.46302,-2.69346 0,-1.7436 0.108479,-2.84956 0.291041,-2.96069 0.166688,-0.10318 1.198563,0.71967 2.38125,1.89442 l 2.090209,2.07698 v -1.88383 c 0,-1.37054 0.100541,-1.92088 0.370416,-2.02407 0.203729,-0.0794 0.441854,-0.0714 0.529167,0.0159 0.293687,0.29369 0.171979,5.32077 -0.132292,5.50862 -0.164041,0.10319 -1.121833,-0.64029 -2.19075,-1.70391 -1.042458,-1.03452 -1.976437,-1.88384 -2.076979,-1.88384 -0.0979,0 -0.214312,0.80169 -0.256646,1.7833 z m 123.82497,0.52916 c -0.0582,0.94457 -0.19314,1.27529 -0.54239,1.34144 -0.41805,0.0794 -0.46302,-0.18786 -0.46302,-2.70933 0,-2.61938 0.0344,-2.79665 0.52916,-2.79665 0.43656,0 0.52917,0.17727 0.52917,1.016 v 1.01865 l 1.91823,-0.0265 1.91823,-0.0238 0.082,-0.99219 c 0.0635,-0.77788 0.19314,-0.99219 0.59531,-0.99219 0.47625,0 0.51329,0.20638 0.51329,2.79665 0,2.74902 -0.0106,2.794 -0.59531,2.71197 -0.52917,-0.0741 -0.59002,-0.22225 -0.55033,-1.34143 l 0.045,-1.25677 h -3.89732 z m -110.601095,0.97896 c -0.854604,0.59796 -3.048,0.53181 -4.124854,-0.12435 -0.992188,-0.60325 -1.748896,-2.12725 -1.486958,-2.98715 0.388937,-1.27794 2.19075,-2.45798 3.553354,-2.32569 1.397,0.13494 2.645833,0.59002 2.645833,0.96309 0,0.31485 -0.346604,0.35189 -1.947333,0.21696 -1.759479,-0.14817 -2.005542,-0.10848 -2.513542,0.39952 -1.352021,1.35202 -0.182562,3.47662 1.912938,3.47662 1.172104,0 1.489604,-0.26723 1.489604,-1.24619 0,-0.73554 0.08731,-0.89429 0.418041,-0.76729 0.230188,0.09 0.468313,0.1614 0.529167,0.1614 0.06085,0 0.111125,0.4101 0.111125,0.91016 0,0.64294 -0.174625,1.03453 -0.587375,1.32292 z m 30.167791,-0.17198 c -0.07144,0.37835 -0.447145,0.46038 -2.330979,0.50271 -1.235604,0.0265 -2.394479,-0.0132 -2.577041,-0.0873 -0.232834,-0.0979 -0.33073,-0.91546 -0.33073,-2.76225 v -2.62467 h 2.667 c 2.016125,0 2.643188,0.082 2.558521,0.33073 -0.07144,0.21696 -0.812271,0.35719 -2.153708,0.40746 l -2.045229,0.0794 0.08202,0.71438 c 0.07937,0.68527 0.150812,0.71967 1.66952,0.74877 2.206625,0.0423 2.243667,0.48154 0.05027,0.57679 -1.785937,0.0767 -1.801812,0.0847 -1.719791,0.79375 0.07937,0.70115 0.121708,0.71702 2.151062,0.79111 1.783292,0.0688 2.055813,0.14022 1.979083,0.52916 z m -47.175207,0.0556 c 0,0.32015 -0.494771,0.41275 -2.558521,0.47361 -1.407583,0.0397 -2.598208,-0.0185 -2.648479,-0.13229 -0.05027,-0.11642 -0.05292,-1.37054 -0.0026,-2.78871 l 0.08731,-2.57969 h 2.619375 c 2.219854,0 2.595563,0.0609 2.465917,0.39688 -0.116417,0.30427 -0.613833,0.39687 -2.108729,0.39687 -1.886479,0 -1.955271,0.0212 -1.955271,0.63236 0,0.77787 0.423333,0.95514 2.286,0.95514 0.899583,0 1.386417,0.10054 1.285875,0.26458 -0.08996,0.14553 -0.931333,0.26459 -1.867958,0.26459 h -1.703917 v 1.56633 l 2.050521,0.0767 c 1.611312,0.0609 2.050521,0.1614 2.050521,0.4736 z m 99.382791,0.26459 c -1.00013,0 -2.19075,0.0741 -2.64583,0.16404 l -0.8255,0.16669 v -5.6224 h 2.51354 c 2.05846,0 2.51354,0.0714 2.51354,0.39688 0,0.3175 -0.39688,0.39687 -1.98438,0.39687 -1.93939,0 -1.98437,0.0159 -1.98437,0.66146 0,0.70644 0.0953,0.73819 2.30717,0.77523 1.84943,0.0318 1.4261,0.53975 -0.52123,0.62706 -1.7833,0.0767 -1.78594,0.0767 -1.78594,0.8599 v 0.78052 h 2.11667 c 1.70391,0 2.11666,0.0767 2.11666,0.39687 0,0.31486 -0.37835,0.39688 -1.82033,0.39688 z m -73.641479,-1.94734 c -0.05027,1.33615 -0.1905,2.07434 -0.407459,2.14577 -0.251354,0.0847 -0.330729,-0.56885 -0.330729,-2.69081 0,-3.51366 0.179917,-3.56393 2.918354,-0.80698 l 1.976438,1.99496 0.132292,-2.0611 c 0.103187,-1.59544 0.22225,-2.05846 0.529166,-2.05846 0.611188,0 0.584729,5.51391 -0.02646,5.63033 -0.243417,0.0476 -1.330854,-0.82285 -2.569104,-2.05581 l -2.143125,-2.13519 z m 38.364583,0.008 c -0.04762,1.2409 -0.195792,2.06904 -0.383646,2.1299 -0.470958,0.1561 -0.529167,-0.1323 -0.574146,-2.90248 -0.04233,-2.51883 -0.0291,-2.57969 0.558271,-2.57969 0.394229,0 1.23825,0.64029 2.439458,1.85208 1.010708,1.01865 1.926167,1.85209 2.032,1.85209 0.105833,0 0.227542,-0.86254 0.272521,-1.91823 0.119062,-2.96333 0.595312,-2.31775 0.679979,0.92604 0.06085,2.25954 0.0026,2.84427 -0.283104,2.84427 -0.198438,0 -1.288521,-0.9525 -2.420938,-2.11667 -1.132416,-1.16416 -2.100791,-2.11666 -2.151062,-2.11666 -0.05027,0 -0.127,0.91281 -0.169333,2.02935 z m 13.668376,1.89706 c -1.07421,0.48948 -2.78871,0.35984 -3.95023101,-0.29897 -1.264708,-0.71438 -1.656291,-1.6219 -1.309687,-3.02419 0.201083,-0.81756 0.463021,-1.10861 1.426104,-1.59544 0.65087401,-0.32808 1.57691401,-0.59531 2.05845401,-0.59531 1.16417,0 2.79665,0.69321 2.6379,1.12183 -0.0662,0.18256 -0.28575,0.28046 -0.48419,0.21431 -0.20108,-0.0661 -1.0795,-0.16404 -1.95262,-0.21695 -1.33086,-0.082 -1.68275,-0.008 -2.18281001,0.46037 -0.738192,0.69056 -0.759359,1.57956 -0.0635,2.46592 0.60854001,0.76993 1.74889001,1.10331 2.90777001,0.84931 0.66145,-0.14552 0.79375,-0.30427 0.79375,-0.94721 0,-0.51064 0.13493,-0.77258 0.39687,-0.77258 0.28311,0 0.39688,0.28839 0.39688,1.016 0,0.83079 -0.12171,1.07156 -0.67469,1.32291 z m -38.533918,-0.11112 c -0.1905,0.0609 -1.328208,0.18256 -2.529416,0.26987 l -2.182813,0.1614 v -5.56948 h 2.402417 c 1.804458,0 2.375958,0.082 2.293937,0.33073 -0.06879,0.20902 -0.756708,0.35983 -1.87325,0.4101 -1.674812,0.0741 -1.76477,0.10848 -1.76477,0.72761 0,0.71173 0.08996,0.74348 1.918229,0.65881 0.997479,-0.0476 1.25677,0.0265 1.25677,0.36248 0,0.33867 -0.312208,0.42069 -1.587499,0.42069 h -1.5875 v 1.5875 h 1.836208 c 1.658937,0 2.69875,0.36777 1.817687,0.64029 z m 127.000028,-0.17727 c -0.0741,0.39423 -0.44982,0.4736 -2.53209,0.53975 l -2.44478,0.0767 v -5.57742 h 2.53474 c 1.91029,0 2.50827,0.082 2.42625,0.33073 -0.0714,0.21696 -0.807,0.35719 -2.13786,0.40746 -1.95265,0.0741 -2.02938,0.10319 -2.02938,0.72231 0,0.72496 0.51329,0.9234 2.24899,0.86254 1.67216,-0.0582 1.37054,0.44715 -0.32015,0.53711 -1.59811,0.0847 -1.94736,0.31485 -1.73305,1.13771 0.11377,0.43391 0.39159,0.50006 2.10347,0.50006 1.73569,0 1.96323,0.0556 1.88386,0.46302 z m -25.63553,0.26194 c -1.67482,0.85195 -4.4159,0.0582 -5.3393,-1.55046 -0.39687,-0.69586 -0.4101,-0.89959 -0.0979,-1.63777 0.76464,-1.80182 2.69875,-2.68817 4.73604,-2.16959 1.40494,0.35719 1.64306,0.508 1.40758,0.89165 -0.0952,0.15346 -0.76464,0.20108 -1.59014,0.11642 -1.92088,-0.19844 -2.71198,0.0423 -3.19088,0.96837 -0.52652,1.016 -0.17462,1.95792 0.94456,2.53736 0.81228,0.41804 1.45257,0.41275 3.25173,-0.0318 0.94721,-0.23548 0.86255,0.37306 -0.1217,0.87577 z m -52.68381,-1.05834 c -0.0582,0.91811 -0.19844,1.27794 -0.52123,1.33879 -0.56621,0.10848 -0.635,-0.29368 -0.53181,-3.15118 0.0767,-2.11667 0.13494,-2.35215 0.59531,-2.35215 0.41804,0 0.51065,0.1905 0.51065,1.05833 v 1.05834 h 2.00289 c 1.91558,0 2.0029,-0.0265 1.95527,-0.59531 -0.0926,-1.13242 0.0132,-1.52136 0.40746,-1.52136 0.32808,0 0.39688,0.48419 0.39688,2.77813 0,2.29393 -0.0688,2.77812 -0.39688,2.77812 -0.29898,0 -0.39687,-0.32279 -0.39687,-1.32292 v -1.32291 h -3.93965 z m 42.91539,-33.23166 c 0,0.31221 4.16454,0.28839 4.35769,-0.0238 0.14287,-0.23018 -1.87061,-4.77572 -2.11402,-4.77572 -0.13494,0 -2.24367,4.5085 -2.24367,4.79954 z m -13.544,34.02806 c -0.0741,0.38893 -0.4392,0.47625 -2.26747,0.53975 l -2.18017,0.0767 v -2.78871 c 0,-2.61144 0.0344,-2.78871 0.52917,-2.78871 0.48683,0 0.52916,0.17727 0.52916,2.24896 v 2.24896 h 1.73831 c 1.51342,0 1.72773,0.0609 1.651,0.46302 z m 4.49263,-1.83886 c -0.0635,1.91823 -0.15081,2.30982 -0.52917,2.38125 -0.39423,0.0767 -0.46302,-0.20902 -0.52916,-2.24366 l -0.0767,-2.33363 -1.12448,-0.082 c -0.76465,-0.0556 -1.12448,-0.20373 -1.12448,-0.46302 0,-0.30692 0.5371,-0.381 2.79929,-0.381 2.12196,0 2.77548,0.0794 2.69346,0.33073 -0.0609,0.18256 -0.5424,0.36777 -1.07156,0.41275 l -0.96044,0.082 z m 33.62851,-2.32833 h -1.55839 v 2.11667 h 1.30439 c 1.69069,0 2.39448,-0.6059 1.9738,-1.69863 -0.12171,-0.31485 -0.5424,-0.41804 -1.7198,-0.41804 z m -104.216697,-0.0265 v 2.14313 h 1.283229 c 0.957792,0 1.404938,-0.13759 1.772708,-0.54504 0.796396,-0.87842 0.23548,-1.42346 -1.561041,-1.51871 z m -29.691541,1.94204 c -0.0635,2.33363 -0.137584,2.71992 -0.537104,2.79665 -0.418042,0.0794 -0.463021,-0.18786 -0.463021,-2.70933 0,-2.63525 0.03175,-2.79665 0.537104,-2.79665 0.513292,0 0.537104,0.13494 0.463021,2.70933 z m 38.158208,-0.0185 c -0.08996,1.81769 -0.240771,2.72521 -0.463021,2.79929 -0.182563,0.0609 -0.336021,0.0714 -0.343959,0.0212 -0.0053,-0.0476 -0.0344,-1.30704 -0.06614,-2.79929 -0.05027,-2.55323 -0.02117,-2.71198 0.47625,-2.71198 0.502708,0 0.523875,0.13229 0.396875,2.69081 z m 85.98956,0.62442 c 0,0.2249 2.08227,0.12965 2.22514,-0.10319 0.16404,-0.26193 -0.62971,-2.41829 -0.889,-2.41829 -0.1561,0 -1.33614,2.22515 -1.33614,2.52148 z m -40.21664,-0.16669 c 0,0.30163 1.905,0.4154 2.1881,0.13229 0.2196,-0.2196 -0.61119,-1.905 -1.01865,-2.0611 -0.31485,-0.12171 -1.16945,1.29117 -1.16945,1.92881 z"
       sodipodi:nodetypes="scccccccccccsccccscscscsccccscscsccscccscccccccccccccccccccccccccssccccsscccccccssccccccccccsccccccscccccsscccccccccscscscccccccsscccccssccsscccscccccccccscscccsscccccsccsccccsscccssscccscscccscsccccscccccccsccscsscsccccccscsccscscccscccscccscsccscccsssccccsscccccccccscssscssccccscscccccccccsccccscssscscccsscccssssccscsssccscccscccccccscsccssscccccsccccccssscccccsccscssccscccccsccscccsccccccccccccccsscscsssscccscsscccssscsccccccssccccsccscsccscccccssccsccscscsssscs" />
    <path
       id="path456"
       style="fill:#156a3c;fill-opacity:1;stroke-width:0.160472"
       d="m 32.672913,-331.72671 c 0,-0.0769 -0.057,-0.16267 -0.12668,-0.19061 -0.0697,-0.0279 -1.26667,-1.14821 -2.65999,-2.48949 -1.39332,-1.34125 -3.97729,-3.81145 -5.7422,-5.48928 -1.76487,-1.67786 -5.62575,-5.36628 -8.57975,-8.19653 -2.95396,-2.83025 -5.4275,-5.14588 -5.49669,-5.14588 -0.0692,0 -1.08508,0.91493 -2.2575,2.03316 l -2.1317,2.03317 2.46486,2.3505 c 1.35567,1.29278 4.25643,4.03411 6.44618,6.09182 2.18971,2.05775 5.26177,4.95668 6.82675,6.44211 l 2.84546,2.70078 h 4.20563 c 2.43626,0 4.20563,-0.0588 4.20563,-0.13975 z m -19.03785,-5.3253 c 0.33364,-0.11903 0.26596,-0.19534 -3.40265,-3.83592 l -1.92061,-1.90596 -4.49715,-0.0762 -4.49714901,-0.0763 -0.92887199,-0.42936 c -1.926987,-0.89072 -3.04935,-2.38162 -3.358939,-4.46191 -0.09271,-0.62288 -0.105754,-3.4295 -0.0318,-6.84935 0.109432,-5.06248 0.163116,-5.87068 0.425212,-6.40056 0.825236,-1.66849 2.369476,-2.94479 4.18414799,-3.45816 0.893259,-0.25267 1.67663001,-0.30945 4.94580001,-0.35848 2.13643,-0.032 5.6324,-0.007 7.76883,0.0549 3.77544,0.10998 3.91398,0.12528 4.93733,0.54507 1.27503,0.52302 2.41962,1.57308 3.05078,2.79876 0.44606,0.86622 0.44979,0.90355 0.57775,5.75111 0.13652,5.17181 0.0665,6.93931 -0.31324,7.9111 -0.28218,0.7221 -0.44704,0.509 2.45832,3.17825 l 2.11249,1.9408 0.43592,-0.64476 c 0.77349,-1.14409 1.31993,-2.4433 1.60108,-3.80672 0.2332,-1.13096 0.26603,-2.32873 0.21735,-7.92874 -0.0558,-6.41872 -0.0679,-6.62528 -0.44889,-7.66382 -0.69371,-1.891 -1.63891,-3.3306 -3.03639,-4.62457 -2.02006,-1.8705 -4.5104,-3.01165 -7.35057,-3.36828 -1.66931,-0.20963 -15.47252,-0.21373 -17.07165401,-0.005 -4.68010899,0.61064 -8.47510699,3.21591 -10.14460099,6.96431 -0.884873,1.98681 -0.950304,2.76297 -0.879131,10.42869 0.07167,7.71821 0.07165,7.71797 1.133501,9.83228 1.817344,3.6186 5.505715,5.97247 10.12187399,6.45965 1.40313101,0.14811 13.50687101,0.17351 13.91126101,0.0292 z"
       sodipodi:nodetypes="ssscssscscscsscscccsscccscssssscsssscsccssccc" />
    <g
       id="g13387"
       style="fill:#806600"
       transform="matrix(0.26458333,0,0,0.26458333,-80.161917,-717.74887)">
      <path
         d="m 751.6936,2907.7178 c -5.2661,-5.0693 -15.0323,-14.4055 -21.7028,-20.7469 -6.6704,-6.3415 -21.2627,-20.282 -32.4274,-30.979 -11.1646,-10.697 -20.5134,-19.449 -20.7749,-19.449 -0.2616,0 -4.1011,3.458 -8.5323,7.6844 l -8.0568,7.6844 9.316,8.8838 c 5.1238,4.8861 16.0873,15.247 24.3635,23.0242 8.2761,7.7773 19.887,18.7339 25.8019,24.3481 l 10.7545,10.2077 h 15.8953 c 9.2079,0 15.8953,-0.2222 15.8953,-0.5282 z m -61.4218,-9.9976 c 1.261,-0.4499 1.0052,-0.7383 -12.8604,-14.498 l -7.259,-7.2036 -16.9971,-0.2881 -16.9971,-0.2882 -3.5107,-1.6228 c -7.2831,-3.3665 -11.5251,-9.0014 -12.6952,-16.8639 -0.3504,-2.3542 -0.3997,-12.9619 -0.1202,-25.8873 0.4136,-19.1338 0.6165,-22.1884 1.6071,-24.1911 3.119,-6.3061 8.9555,-11.1299 15.8141,-13.0702 3.3761,-0.955 6.3369,-1.1696 18.6928,-1.3549 8.0747,-0.1211 21.2878,-0.028 29.3625,0.2076 14.2694,0.4157 14.793,0.4735 18.6608,2.0601 4.819,1.9768 9.145,5.9455 11.5305,10.578 1.6859,3.2739 1.7,3.415 2.1836,21.7365 0.516,19.547 0.2515,26.2273 -1.1839,29.9002 -1.0665,2.7292 -1.6896,1.9238 9.2913,12.0123 l 7.9842,7.3353 1.6476,-2.4369 c 2.9234,-4.3241 4.9887,-9.2345 6.0513,-14.3876 0.8814,-4.2745 1.0055,-8.8015 0.8215,-29.9669 -0.2109,-24.2597 -0.2566,-25.0404 -1.6966,-28.9656 -2.6219,-7.1471 -6.1943,-12.5881 -11.4761,-17.4787 -7.6349,-7.0696 -17.0472,-11.3826 -27.7817,-12.7305 -6.3092,-0.7923 -58.4788,-0.8078 -64.5228,-0.019 -17.6886,2.3079 -32.0319,12.1546 -38.3418,26.3218 -3.3444,7.5092 -3.5917,10.4427 -3.3227,39.4155 0.2709,29.1712 0.2708,29.1703 4.2841,37.1614 6.8687,13.6766 20.809,22.5731 38.2559,24.4144 5.3032,0.5598 51.0496,0.6558 52.578,0.1104 z"
         style="fill:#ffffff;fill-opacity:1;stroke-width:0.606509"
         id="path13327" />
      <path
         d="m 650.63086,2857.6843 c -0.99,1.85 -2.34,1.92 -32.75,1.8 -17.44,-0.07 -34.44,-0.48 -37.79,-0.92 -14.03,-1.83 -31.04,-11.18 -37.55,-20.63 -6.14,-8.93 -7.16,-13.73 -7.65,-35.88 -0.28,-12.79 -0.03,-22.02 0.69,-25.5 4.1,-19.72 18.87,-32.26 42.97,-36.48 6.16,-1.07 16.68,-1.46 39.72,-1.46 29.95,0 31.38,0.09 32.36,1.93 1.47,2.73 1.31,15.33 -0.21,17.34 -1.11,1.46 -5.04,1.68 -35.25,1.94 -33,0.28 -34.15,0.36 -38.96,2.58 -5.82,2.68 -7.82,4.32 -11.69,9.61 l -2.85,3.9 v 21.45 c 0,24.46 0.3,25.7 7.71,32.22 7.93,6.99 10.41,7.38 47.58,7.46 28,0.06 32.92,0.29 33.73,1.57 1.28,2.03 1.24,16.65 -0.06,19.07 z"
         style="fill:#ffffff;fill-opacity:1"
         id="path13365"
         inkscape:transform-center-x="4.8474497"
         inkscape:transform-center-y="17.501827" />
    </g>
  </g>
</svg>
